<?xml version="1.0" encoding="utf-8"?>
<!-- Generator: Adobe Illustrator 16.0.0, SVG Export Plug-In . SVG Version: 6.00 Build 0)  -->
<!DOCTYPE svg PUBLIC "-//W3C//DTD SVG 1.1//EN" "http://www.w3.org/Graphics/SVG/1.1/DTD/svg11.dtd">
<svg version="1.1" id="Layer_1" xmlns="http://www.w3.org/2000/svg" xmlns:xlink="http://www.w3.org/1999/xlink" x="0px" y="0px"
	 width="2000px" height="700px" viewBox="0 0 2000 700" style="enable-background:new 0 0 2000 700;" xml:space="preserve">
<style type="text/css">
<![CDATA[
	.st0{fill:#AEDAE0;}
]]>
</style>
<path class="st0" d="M139.4,481.4c-0.4-0.2-0.8-0.3-1.1-0.4c-16.1-3.8-31.1,8.5-38.3,21.9c-7.2,11.9-8.6,30.6,4.1,39.4
	c1.9,1.2,4,2,6.2,2.3c19.2,1.6,35.2-15,39.8-32.5C153.9,501.1,150.9,486.1,139.4,481.4 M75.7,454.8c-9.4-3.8-20.7,2.5-26,10.8
	c-10.6,16.3-12,41.5,3.9,54.9c1.5,1.1,3.3,1.9,5.2,2.4c13.2,3.3,24.5-8.4,28.7-19.8c6-15,5.6-35.3-7.9-46.1
	C78.3,456.1,77,455.3,75.7,454.8 M158.2,549.4c-16.5-5.9-34.5,5.4-42.5,19.7c-6.8,9.9-7.2,26.8,4.7,33c17.3,7.2,36.9-6.2,44.2-21.8
	C170.3,570.3,169.6,555,158.2,549.4 M15.8,492.4c-6.8-3-15.3-1.8-20.5,4.2c-14,16.1-12.1,44.8,5.9,57.2c7.6,5,17.6,1.7,22.9-5
	c11.3-14.4,10.5-37.1-1.3-50.9C20.9,495.5,18.5,493.6,15.8,492.4 M73.6,556.8c-13.4-5.7-30-4.8-43.1,1.7
	c-14.5,7.8-28.1,18.2-37.5,31.9c-8.3,9.2-5.3,25.1,6.2,30.1c13.7,6.3,29.6,1.9,43.6,7.1c12.4,3.2,20.2,13.8,29,22.2
	c7.3,7.6,20.3,11.5,28.9,3.9c7.8-8.2,7-20.9,6.4-31.5c-2.8-17.9-6.1-36.8-16.9-51.9C86,564,80.2,559.6,73.6,556.8"/>
<path class="st0" d="M1916,206c-0.3,0.3-0.6,0.5-1,0.8c-11.3,12.3-7.8,31.7,0.5,44.7c7,12.2,22.9,22.7,36.9,15.8
	c2-1,3.7-2.6,5.1-4.4c10.9-16.2,4-38.5-9.1-51.3C1940.6,202.8,1925.8,198.2,1916,206 M1861,249.3c-8,6.5-8,19.6-3.3,28.4
	c9.1,17.5,30.8,31.2,50.6,23.7c1.7-0.8,3.3-2,4.6-3.4c9.4-10.1,4.7-25.8-3.4-35.2c-10.3-12.7-28.5-22.4-44.7-15.7
	C1863.4,247.6,1862.1,248.4,1861,249.3 M1985.5,222.9c-13.4,11.7-12.2,33.2-3.5,47.3c5.4,10.9,20.2,19.6,31.6,12.1
	c14.9-11.8,12.8-35.7,2.5-49.9C2010,222.5,1996,215.6,1985.5,222.9 M1864.8,320.9c-6,4.6-9.1,12.7-6.4,20.3
	c7.3,20.3,33.7,32.8,53.5,23c8.2-4.3,10.2-14.7,6.9-22.7c-7.1-17.1-27.7-27.7-45.8-24C1869.9,317.9,1867.1,319.1,1864.8,320.9
	 M1950.3,301.5c-11.7,9.1-19,24.2-19.8,38.9c-0.2,16.7,2.3,33.9,9.7,48.9c4,11.9,19.6,17.1,29.7,9.4c12.3-9,16.3-25.3,27.8-35.1
	c9-9.4,22.2-11.1,34-14.7c10.3-2.7,20.2-12.3,17.7-23.7c-3.4-11-15.1-16.5-24.8-21.2c-17.3-6.3-35.6-12.8-54.3-10.7
	C1962.8,294.1,1956,297,1950.3,301.5"/>
<g>
	<path class="st0" d="M1528.7,172.1c-2.3-2.1-4.7-3.9-7.2-5.4l86-92.2c1.7,2.4,3.6,4.8,5.8,6.9c16.5,15.4,42.3,14.5,57.7-2
		c15.4-16.5,14.5-42.3-2-57.7c-12.4-11.6-30.2-13.9-44.8-7.3c5.6-15,2-32.5-10.4-44.1c-16.5-15.4-42.3-14.5-57.7,2
		c-15.4,16.5-14.5,42.3,2,57.7c1.6,1.5,3.2,2.7,5,3.9l-85.4,91.5c-1.3-1.6-2.7-3.2-4.2-4.7c-16.5-15.4-42.3-14.5-57.7,2
		c-15.4,16.5-14.5,42.3,2,57.7c12.4,11.6,30.2,13.9,44.8,7.3c-5.6,15-2,32.6,10.4,44.2c16.5,15.4,42.3,14.5,57.7-2
		C1546.1,213.4,1545.2,187.5,1528.7,172.1"/>
</g>
<g>
	<path class="st0" d="M558.7,48.3c1.7-7.6-2.6-13.7-9.4-18.5c-9-6.3-19.2-2.7-25.6,6.3c-6.3,9-6.3,19.8,2.6,26.2
		c0.9,0.6,1.7,1.1,2.6,1.6l1.1,0.8l-87.8,124.2l-1.1-0.8c-0.7-0.7-1.5-1.4-2.3-2c-9-6.3-19.2-2.7-25.6,6.3
		c-6.3,8.9-6.3,19.8,2.6,26.2c6.8,4.8,14,6.8,20.6,2.7c-1.7,7.6,2.6,13.7,9.4,18.5c9,6.3,19.2,2.7,25.6-6.2c6.3-9,6.3-19.9-2.6-26.2
		c-0.2-0.1-0.3-0.2-0.5-0.3l87.6-123.8c0.2,0.1,0.3,0.2,0.4,0.4c9,6.3,19.2,2.7,25.6-6.2c6.3-9,6.3-19.9-2.6-26.2
		C572.5,46.2,565.2,44.2,558.7,48.3"/>
</g>
<path class="st0" d="M67.1,314.3c-5.6-13.7-1.3-26.9,10.4-32.5l-67.2-165c-12.3,4.1-24.6-2.3-30.2-16c-5.8-14.3-0.9-28,11.9-33.2
	c9.8-4,18-4,24.3,0c1.7-7.3,7.6-13,17.4-17c12.8-5.2,25.9,1.1,31.7,15.4c5.8,14.3,0.9,28-11.9,33.2c-0.9,0.4-1.8,0.7-2.9,1
	L118,265.4c0.9-0.5,1.8-1,2.7-1.3c12.8-5.2,25.9,1.1,31.7,15.4c5.8,14.3,0.9,28-11.9,33.2c-9.8,4-18,4-24.3,0
	c-1.7,7.3-7.6,13-17.4,17C86,335,72.9,328.6,67.1,314.3z M12.9,110.5l70.8,173.8l-2.7,1c-12.2,5-13.5,17.2-9.4,27.2
	c4.1,10,13.5,17.8,25.6,12.9c9.8-4,14.9-9.8,15-17.1l0.1-5.6l4,4c5.2,5.2,12.8,5.8,22.7,1.8c12-4.9,13.3-17.1,9.3-27.1
	s-13.5-17.8-25.6-12.9c-1,0.4-1.9,0.9-3,1.5l-0.3,0.2l-3.7,1.6l-71-174.2l4.1-1.6c1.3-0.3,2.3-0.6,3.3-1c12-4.9,13.3-17.1,9.3-27.1
	c-4.1-10-13.5-17.8-25.6-12.9c-9.8,4-14.9,9.8-15,17.1l-0.1,5.6l-4-4c-5.2-5.2-12.8-5.8-22.7-1.8c-12,4.9-13.3,17.1-9.3,27.1
	c4.1,10,13.5,17.8,25.6,12.9L12.9,110.5z"/>
<path class="st0" d="M1818.9,699.1c3.4-11.4,12.7-17.5,22.9-15.1l41.2-137.3c-9.8-3.6-14.2-13.8-10.8-25.3
	c3.6-11.9,13.5-18,24.2-14.8c8.2,2.5,13.3,6.6,15.2,12.2c4.8-3.7,11.3-4.3,19.5-1.8c10.7,3.2,15.7,13.8,12.1,25.7
	c-3.6,11.9-13.5,18-24.2,14.8c-0.8-0.2-1.5-0.5-2.3-0.9l-41.3,137.5c0.9,0.1,1.6,0.3,2.4,0.5c10.7,3.2,15.7,13.8,12.1,25.7
	c-3.6,11.9-13.5,18-24.2,14.8c-8.2-2.5-13.3-6.6-15.2-12.2c-4.8,3.7-11.3,4.3-19.4,1.8C1820.3,721.6,1815.3,711,1818.9,699.1z
	 M1887.8,544.2l-43.4,144.6l-2.2-0.7c-10.1-3.1-17.1,4-19.6,12.2c-2.5,8.3-0.5,18,9.5,21c8.2,2.5,14.2,1.4,18-3.2l2.9-3.5l0.5,4.5
	c0.6,5.9,5.1,10.1,13.3,12.6c10,3,17-4,19.5-12.3c2.5-8.3,0.5-18-9.5-21c-0.8-0.2-1.6-0.4-2.7-0.6l-0.3-0.1l-3.1-0.9l43.5-144.9
	l3.4,1.1c0.9,0.4,1.8,0.8,2.5,1c10,3,17-4,19.5-12.3c2.5-8.3,0.5-18-9.5-21c-8.2-2.5-14.2-1.4-18,3.2l-2.9,3.5l-0.5-4.5
	c-0.6-5.9-5.1-10.1-13.3-12.6c-10-3-17,4-19.5,12.3c-2.5,8.3-0.5,18,9.5,21L1887.8,544.2z"/>
</svg>
