<?xml version="1.0" encoding="utf-8"?>
<!-- Generator: Adobe Illustrator 16.0.0, SVG Export Plug-In . SVG Version: 6.00 Build 0)  -->
<!DOCTYPE svg PUBLIC "-//W3C//DTD SVG 1.1//EN" "http://www.w3.org/Graphics/SVG/1.1/DTD/svg11.dtd">
<svg version="1.1" id="Layer_1" xmlns="http://www.w3.org/2000/svg" xmlns:xlink="http://www.w3.org/1999/xlink" x="0px" y="0px"
	 width="50px" height="50px" viewBox="0 0 50 50" style="enable-background:new 0 0 50 50;" xml:space="preserve">
<style type="text/css">
<![CDATA[
	.st0{fill-rule:evenodd;clip-rule:evenodd;fill:none;}
	.st1{fill:#F36C25;}
	.st2{fill-rule:evenodd;clip-rule:evenodd;fill:#88C9D1;}
	.st3{fill:#FFFFFF;}
	.st4{fill:none;}
	.st5{fill-rule:evenodd;clip-rule:evenodd;fill:#FFFFFF;}
]]>
</style>
<rect x="18.5" y="24.2" class="st3" width="12.9" height="7.7"/>
<polygon class="st3" points="43.7,18.1 41.6,16.2 36.5,14.9 29.1,14.2 24.1,14.2 19.2,14.5 14.4,14.8 9.9,15.8 6.5,17.1 6.5,18.9 
	14.2,20.9 24.5,20.9 33.6,20.9 41.6,19.3 "/>
<path class="st1" d="M48,32.7l-3-15.1c0-1.6-9-3.9-20-3.9s-20,2.3-20,3.9L2,32.8c0,0.1,0,0.2,0,0.2c0,2.1,10.2,3.9,22.9,3.9
	c0,0,0,0,0.1,0c0,0,0,0,0,0c0,0,0,0,0.1,0c12.7,0,23-1.7,23-3.9C48,32.9,48,32.8,48,32.7z M30.1,29.5c0,0.8-0.7,1.5-1.5,1.5
	c-0.8,0-1.5-0.6-1.5-1.5c0-0.1,0-0.2,0-0.3h-4.5c0,0.1,0,0.2,0,0.3c0,0.8-0.7,1.5-1.5,1.5c-0.8,0-1.5-0.6-1.5-1.5
	c0-0.6,0.4-1.1,0.9-1.3c-0.5-0.2-0.9-0.7-0.9-1.3c0-0.8,0.6-1.5,1.5-1.5c0.8,0,1.5,0.7,1.5,1.5c0,0.1,0,0.2,0,0.2h4.5
	c0-0.1,0-0.1,0-0.2c0-0.8,0.7-1.5,1.5-1.5c0.8,0,1.5,0.7,1.5,1.5c0,0.6-0.4,1.1-0.9,1.3C29.7,28.4,30.1,28.9,30.1,29.5z M24.9,20.3
	c-9.7,0-17.5-1.2-17.5-2.6s7.8-2.9,17.5-2.9s17.5,1.4,17.5,2.9S34.6,20.3,24.9,20.3z"/>
<path class="st1" d="M42.9,16.8"/>
</svg>
