<?xml version="1.0" encoding="utf-8"?>
<!-- Generator: Adobe Illustrator 16.0.0, SVG Export Plug-In . SVG Version: 6.00 Build 0)  -->
<!DOCTYPE svg PUBLIC "-//W3C//DTD SVG 1.1//EN" "http://www.w3.org/Graphics/SVG/1.1/DTD/svg11.dtd">
<svg version="1.1" id="Layer_1" xmlns="http://www.w3.org/2000/svg" xmlns:xlink="http://www.w3.org/1999/xlink" x="0px" y="0px"
	 width="50px" height="50px" viewBox="0 0 50 50" style="enable-background:new 0 0 50 50;" xml:space="preserve">
<style type="text/css">
<![CDATA[
	.st0{fill-rule:evenodd;clip-rule:evenodd;fill:none;}
	.st1{fill:#F36C25;}
	.st2{fill-rule:evenodd;clip-rule:evenodd;fill:#88C9D1;}
	.st3{fill:#FFFFFF;}
	.st4{fill:none;}
	.st5{fill-rule:evenodd;clip-rule:evenodd;fill:#FFFFFF;}
]]>
</style>
<rect x="16.6" y="25.6" class="st3" width="16.6" height="17"/>
<path class="st1" d="M48,22.7L25.9,3.8c-0.5-0.5-1.3-0.5-1.8,0L2,22.7c-0.5,0.5-0.5,1.2,0,1.7h5.9v20.8c0,0.7,0.6,1.4,1.4,1.4h31.4
	c0.8,0,1.4-0.6,1.4-1.4V24.4H48C48.5,23.9,48.5,23.2,48,22.7z M32.3,41c0,0.7-0.6,1.2-1.4,1.2H19.1c-0.8,0-1.4-0.6-1.4-1.2V30
	c0-0.7,1.8-3.8,7.3-3.8c6.2,0,7.3,3.2,7.3,3.8V41z"/>
</svg>
