<?xml version="1.0" encoding="utf-8"?>
<!-- Generator: Adobe Illustrator 16.0.0, SVG Export Plug-In . SVG Version: 6.00 Build 0)  -->
<!DOCTYPE svg PUBLIC "-//W3C//DTD SVG 1.1//EN" "http://www.w3.org/Graphics/SVG/1.1/DTD/svg11.dtd">
<svg version="1.1" id="Layer_1" xmlns="http://www.w3.org/2000/svg" xmlns:xlink="http://www.w3.org/1999/xlink" x="0px" y="0px"
	 width="50px" height="50px" viewBox="0 0 50 50" style="enable-background:new 0 0 50 50;" xml:space="preserve">
<style type="text/css">
<![CDATA[
	.st0{fill-rule:evenodd;clip-rule:evenodd;fill:none;}
	.st1{fill:#F36C25;}
	.st2{fill-rule:evenodd;clip-rule:evenodd;fill:#88C9D1;}
	.st3{fill:#FFFFFF;}
	.st4{fill:none;}
	.st5{fill-rule:evenodd;clip-rule:evenodd;fill:#FFFFFF;}
]]>
</style>
<rect x="15.8" y="19.2" class="st3" width="17.9" height="16.2"/>
<path class="st1" d="M25,14.1C16.7-1.4-0.2,8.4,1.8,20c2.6,14.9,23.3,27,23.3,27s20.5-12.1,23.1-27C50.2,8.4,33.3-1.4,25,14.1z
	 M32,28.4c0,0.5-0.4,1-1,1H27v4.1c0,0.5-0.4,1-1,1h-2.2c-0.5,0-1-0.4-1-1v-4.1h-4.1c-0.5,0-1-0.4-1-1v-2.2c0-0.5,0.4-1,1-1h4.1v-4.1
	c0-0.5,0.4-1,1-1H26c0.5,0,1,0.4,1,1v4.1h4.1c0.5,0,1,0.4,1,1V28.4z"/>
</svg>
