<?xml version="1.0" encoding="utf-8"?>
<!-- Generator: Adobe Illustrator 16.0.0, SVG Export Plug-In . SVG Version: 6.00 Build 0)  -->
<!DOCTYPE svg PUBLIC "-//W3C//DTD SVG 1.1//EN" "http://www.w3.org/Graphics/SVG/1.1/DTD/svg11.dtd">
<svg version="1.1" id="Layer_1" xmlns="http://www.w3.org/2000/svg" xmlns:xlink="http://www.w3.org/1999/xlink" x="0px" y="0px"
	 width="50px" height="50px" viewBox="0 0 50 50" style="enable-background:new 0 0 50 50;" xml:space="preserve">
<style type="text/css">
<![CDATA[
	.st0{fill-rule:evenodd;clip-rule:evenodd;fill:none;}
	.st1{fill:#F36C25;}
	.st2{fill-rule:evenodd;clip-rule:evenodd;fill:#88C9D1;}
	.st3{fill:#FFFFFF;}
	.st4{fill:none;}
	.st5{fill-rule:evenodd;clip-rule:evenodd;fill:#FFFFFF;}
]]>
</style>
<path class="st1" d="M32.8,3.1c-0.1,0-0.2,0-0.3,0c-3.9,0.7-6,4.8-6.3,8.4c-0.5,3.3,1,7.5,4.6,8.3c0.5,0.1,1.1,0.1,1.6-0.1
	c4.3-1.5,6.3-6.6,5.7-10.9C37.9,6.1,35.8,3.1,32.8,3.1 M16.4,3.3c-2.4,0.1-4.3,2.5-4.7,4.8c-0.8,4.6,1.3,10.2,6,11.7
	c0.4,0.1,0.9,0.1,1.4,0c3.2-0.5,4.6-4.1,4.4-7c-0.1-3.8-2.1-8.3-6.1-9.3C17.1,3.3,16.7,3.3,16.4,3.3 M43.4,16.2
	c-4.2,0.2-7,4.4-7.4,8.3c-0.6,2.8,0.9,6.6,4.1,6.8c4.5-0.1,7.5-4.8,7.6-8.9C48,19.7,46.4,16.4,43.4,16.2 M6.8,17.2
	c-1.8,0-3.5,1.1-4.1,2.9c-1.6,4.8,1.6,11,6.7,12c2.1,0.4,4-1.3,4.5-3.3c1.1-4.2-1.2-9.1-5.1-11C8.2,17.4,7.5,17.2,6.8,17.2
	 M25.5,25.8c-3.5,0-7,1.8-9.3,4.4c-2.4,3.1-4.4,6.6-5.2,10.5c-1,2.8,1.2,6,4.2,6c3.6,0.1,6.7-2.4,10.2-2.5c3-0.5,5.7,1.1,8.4,2.1
	c2.3,1,5.5,0.6,6.7-1.9c0.9-2.5-0.4-5.2-1.6-7.5c-2.3-3.7-4.8-7.5-8.6-9.8C28.9,26.3,27.2,25.8,25.5,25.8"/>
</svg>
