<?xml version="1.0" encoding="utf-8"?>
<!-- Generator: Adobe Illustrator 16.0.0, SVG Export Plug-In . SVG Version: 6.00 Build 0)  -->
<!DOCTYPE svg PUBLIC "-//W3C//DTD SVG 1.1//EN" "http://www.w3.org/Graphics/SVG/1.1/DTD/svg11.dtd">
<svg version="1.1" id="Layer_1" xmlns="http://www.w3.org/2000/svg" xmlns:xlink="http://www.w3.org/1999/xlink" x="0px" y="0px"
	 width="2000px" height="700px" viewBox="0 0 2000 700" style="enable-background:new 0 0 2000 700;" xml:space="preserve">
<style type="text/css">
<![CDATA[
	.st0{fill:#EBEBEB;}
]]>
</style>
<path class="st0" d="M241.3,342.9c-0.9,0.1-1.8,0.4-2.7,0.5c-35.1,11.8-49,53.1-46.7,87.2c0.5,31.2,20.1,68.3,54.7,70
	c5,0.1,9.9-1,14.6-3.1c38.3-19.8,48.9-70.4,36.9-109.1C292.4,363,268.8,338.2,241.3,342.9 M88.6,368.2c-22.4,4-36.3,29.4-36.6,51.5
	c-0.9,43.6,26.5,93.2,72.7,99.8c4.3,0.3,8.6-0.3,12.6-1.7c29-9.6,36.5-45.1,31-71.8c-6.4-35.5-31.4-73.8-69.9-78
	C95.2,367.5,91.8,367.6,88.6,368.2 M357.9,449.7c-38.4,8.3-59.1,51.3-57.2,88c-1.1,26.9,18.2,59.6,48.3,57.1
	c41.4-6.9,62.8-55.7,58.1-94C405.8,475,386.2,446.7,357.9,449.7 M19.7,510.9c-16.5,2.5-31.2,14.8-34,32.4
	c-7.4,47.1,30.3,99.5,79.3,101.5c20.4,0.3,35.4-17.7,37.5-36.8c4.4-40.8-24.1-83.1-63.1-95.2C32.9,510.6,26.2,510,19.7,510.9
	 M206.1,564.5c-32.3,5.1-62.7,26.6-79.8,54.4c-18.2,32-31.6,68-33.3,105.1c-4.8,27.3,19.8,54,47.6,49.9
	c33.5-4.3,58.5-31.6,91.3-38.4c27.4-8.7,54.9,2.1,81.5,7.8c22.9,5.8,52.1-2.3,59.5-27.1c5-24.9-11.6-48.1-25.4-67.4
	c-26.7-30.7-55.3-62.8-93.8-78.6C238.2,563.4,221.9,561.9,206.1,564.5"/>
<path class="st0" d="M1896.4,448c-0.5-0.2-1-0.4-1.4-0.6c-20.2-4.8-39.1,10.6-48.2,27.5c-9,15-10.8,38.5,5.2,49.6
	c2.3,1.6,5,2.5,7.9,2.9c24.1,2,44.2-18.9,50-40.9C1914.7,472.8,1910.8,454,1896.4,448 M1816.2,414.6c-11.8-4.8-26,3.2-32.7,13.6
	c-13.4,20.4-15.1,52.2,4.9,69.1c1.9,1.4,4.2,2.4,6.5,3c16.7,4.1,30.8-10.6,36.1-24.9c7.5-18.8,7.1-44.4-10-57.9
	C1819.6,416.2,1817.9,415.3,1816.2,414.6 M1920.1,533.5c-20.8-7.5-43.4,6.8-53.4,24.8c-8.5,12.5-9.1,33.7,6,41.5
	c21.8,9,46.4-7.8,55.6-27.4C1935.3,559.8,1934.4,540.5,1920.1,533.5 M1741,461.9c-8.6-3.8-19.3-2.2-25.8,5.3
	c-17.6,20.2-15.2,56.3,7.5,71.9c9.6,6.2,22.1,2.1,28.8-6.3c14.2-18.1,13.3-46.7-1.7-64.1C1747.3,465.7,1744.3,463.4,1741,461.9
	 M1813.7,542.9c-16.9-7.2-37.7-6-54.1,2.1c-18.2,9.8-35.3,22.9-47.1,40.1c-10.4,11.5-6.6,31.6,7.8,37.9c17.2,7.9,37.2,2.4,54.8,8.9
	c15.6,4,25.5,17.3,36.5,28c9.1,9.6,25.5,14.4,36.4,4.8c9.8-10.4,8.8-26.3,8-39.6c-3.6-22.6-7.6-46.3-21.2-65.3
	C1829.3,552,1821.9,546.4,1813.7,542.9"/>
<path class="st0" d="M1541.9,596.5c-0.3,0.1-0.6,0.3-0.8,0.4c-10.5,6.3-12.1,20.7-9,31.6c2.4,10.1,11.3,20.7,22.7,18.8
	c1.6-0.3,3.2-1,4.5-2c11-9.1,10.9-26.3,4.3-38C1559.9,599.4,1550.5,593,1541.9,596.5 M1494.2,615.5c-7,2.9-9.7,12.1-8.2,19.3
	c2.8,14.2,15.2,28.4,30.6,27.2c1.4-0.2,2.8-0.7,4-1.4c8.7-5.2,8.7-17.2,5-25.5c-4.6-11.1-15.4-21.7-28.2-20.4
	C1496.3,614.8,1495.2,615,1494.2,615.5 M1587.3,622.9c-11.9,5.4-15.5,20.8-12.3,32.6c1.5,8.8,10.1,18,19.7,15.1
	c12.9-5.2,16.4-22.5,12.2-34.6C1604.6,627.7,1596.3,619.9,1587.3,622.9 M1481.9,666.6c-5.2,2-9.1,7-8.8,12.9
	c0.9,15.8,16.8,30.1,32.9,27.3c6.6-1.3,10.2-8.2,9.6-14.6c-1.5-13.5-13.7-25.2-27.2-26.4C1486.1,665.6,1483.9,665.9,1481.9,666.6
	 M1546.1,670.8c-10.1,3.9-18.5,13.1-22.1,23.3c-3.7,11.7-5.5,24.3-3.4,36.4c0.4,9.2,10.2,16.1,19,12.8c10.6-3.7,16.8-14.4,26.9-18.9
	c8.3-4.8,17.9-3.2,27-3.2c7.8,0.3,16.7-4.4,17.4-13c-0.1-8.4-7.2-14.8-13-20.1c-10.8-8.1-22.4-16.5-36-18.9
	C1556.5,668.2,1551.1,668.9,1546.1,670.8"/>
<g>
	<g>
		<path class="st0" d="M1905.2,354.2L1905.2,354.2c-1.9,1-4.1,1.6-6.2,1.8c-1.3,0.2-2.7,0.3-4.1,0.4c-4.4,0.4-9,0.8-12.8,2.8
			c-0.7,0.4-1.4,0.8-2,1.3l-0.1,0.1c-3.2,1.9-5.6,4.6-8.2,7.5c-2.9,3.3-6,6.7-10.2,8.8c-3.2,1.7-7.1,1.6-10.6-0.1
			c-3.5-1.8-5.9-5-6.5-8.7c-2.4-8.2-2.6-17.5-0.6-27.8c1.9-8.5,7.7-16.2,15-20l0.1-0.1c3.9-2,8-2.9,12.2-2.6
			c10.8,0.7,20.8,6.4,28.8,11.1c5,3.6,11.1,7.9,12,14.8C1912.3,347.9,1909.7,351.9,1905.2,354.2z M1880.8,356.7
			c4.3-2.3,9.2-2.7,13.9-3.1c1.4-0.1,2.7-0.2,4.1-0.4c1.8-0.1,3.6-0.7,5.2-1.5l0,0c1.7-0.9,5.5-3.4,5.3-8.1
			c-0.7-5.5-6-9.3-10.7-12.6c-8-4.7-17.3-10-27.4-10.6c-3.7-0.3-7.3,0.5-10.7,2.3l-0.1,0.1c-6.6,3.5-11.8,10.5-13.6,18.1
			c-1.9,9.8-1.7,18.8,0.6,26.5l0,0.2c0.4,2.8,2.3,5.3,5,6.7c2.7,1.3,5.6,1.4,8,0.1l0.4-0.2c3.5-1.8,6.1-4.8,8.9-7.9
			c2.6-2.9,5.3-6,8.8-8C1879.2,357.6,1880,357.1,1880.8,356.7z M1835,352.1L1835,352.1c-0.5,0.3-1,0.5-1.5,0.6
			c-5.6,1.6-11.9,0.6-17.4-2.8c-5.8-3.6-10-9.5-11.1-15.8c-0.8-4.7,1.6-9.4,6-11.7c1.7-0.9,3.6-1.3,5.5-1.3
			c10.7-0.3,21.4,7.9,23.7,18.3C1841.4,344.6,1839.2,349.9,1835,352.1z M1812.4,325c-3.4,1.8-5.2,5.3-4.6,8.8
			c0.9,5.5,4.6,10.6,9.8,13.8c4.8,3,10.3,3.9,15.1,2.5c0.3-0.1,0.7-0.3,1-0.4c3.5-1.8,4.6-6.2,3.8-9.5c-2.1-9.2-11.4-16.4-20.9-16.1
			C1815.1,324,1813.7,324.3,1812.4,325z M1896,318.3L1896,318.3c-3,1.3-6.1,1.2-9.2-0.2c-3.9-1.8-7.3-5.8-8.6-10.1
			c-3.5-8.9-1.9-21.4,7-26.7l0.1,0l0.1,0c2.8-1.3,5.8-1.3,8.8-0.1c3.8,1.5,7.1,4.9,8.7,8.9C1907.4,299.4,1905.8,313.1,1896,318.3
			L1896,318.3z M1886.6,283.7c-7.6,4.6-8.9,15.5-5.7,23.4c1.1,3.7,3.9,7,7.1,8.5c1.6,0.7,4.1,1.4,6.8,0.2c8.1-4.4,9.4-16.6,5.4-24.7
			c-1.3-3.3-4.1-6.2-7.2-7.4C1891.5,283,1889.2,282.5,1886.6,283.7z M1839.3,317.9L1839.3,317.9c-0.6,0.3-1.3,0.6-1.9,0.8
			c-9.7,1.8-22.2-4.6-26.7-18.4c-1.9-5.7-0.5-13.5,5.1-16.6l0.2-0.1c0.8-0.4,1.6-0.7,2.4-0.9c10.2-2.3,19.6,5.3,24.1,13.4
			c4,6.7,4.6,16.2-1.9,21.1C1840.3,317.4,1839.8,317.7,1839.3,317.9z M1817.4,286l-0.2,0.1c-4.3,2.4-5.3,8.7-3.8,13.3
			c3,9.5,12.8,18.6,23.4,16.6c0.6-0.2,1.5-0.6,2.2-1.1c5.1-3.9,4.4-11.9,1.2-17.4c-4-7.2-12.3-14-21-12
			C1818.5,285.5,1817.9,285.7,1817.4,286z M1865.9,303.9c-0.5,0.3-1,0.5-1.5,0.6c-8.8,2.5-17.1-4.5-20.1-12.9
			c-3.4-8.1-3.5-19.6,4.4-25.7l0.2-0.1c0.1,0,0.2-0.1,0.2-0.1c0.1-0.1,0.2-0.1,0.4-0.2l0.1-0.1c6.8-3.6,14.9,0.7,18.6,6.7
			c8.1,11.1,6,23.8-0.1,30.1C1867.4,303,1866.7,303.5,1865.9,303.9z M1850.4,268.3c-6.6,5.2-6.4,15.2-3.4,22.4
			c2.5,7,9.6,13.2,16.7,11.2c0.8-0.3,1.8-0.8,2.6-1.6c6.8-7.1,5.2-19.1-0.2-26.6c-3.1-5-9.8-8.5-15-5.8l-0.1,0.1
			c-0.1,0-0.2,0.1-0.2,0.1C1850.5,268.2,1850.5,268.3,1850.4,268.3z"/>
	</g>
</g>
<g>
	<g>
		<path class="st0" d="M518.3,668.8L518.3,668.8c-2.1-0.8-4.1-2.1-5.7-3.6c-1-0.9-2.1-1.9-3.1-3c-3.3-3.2-6.8-6.6-11-8.2
			c-0.8-0.3-1.6-0.5-2.4-0.7l-0.1,0c-3.7-1.2-7.5-1.3-11.6-1.3c-4.6-0.1-9.4-0.1-13.9-2c-3.5-1.4-6.1-4.5-7.1-8.4
			c-1-4-0.1-8.1,2.4-11.1c4.8-7.5,12-14,21.5-19.5c8-4.3,18-5,26.1-1.9l0.1,0.1c4.3,1.7,7.8,4.3,10.4,7.9c6.9,9,9.2,20.8,11,30.3
			c0.6,6.4,1.4,14.2-3.4,19.6C528.1,670,523.2,670.7,518.3,668.8z M499.6,651.2c4.8,1.9,8.4,5.4,12,8.8c1,1,2.1,2,3.1,2.9
			c1.4,1.3,3,2.4,4.7,3.1l0,0c1.8,0.7,6.5,2,10.1-1.4c3.8-4.3,3.2-11.1,2.6-17.1c-1.8-9.5-4-20.5-10.4-28.9
			c-2.3-3.1-5.4-5.4-9.1-6.9l-0.1-0.1c-7.3-2.8-16.4-2.2-23.6,1.7c-9,5.3-15.9,11.5-20.5,18.6l-0.1,0.2c-1.9,2.3-2.6,5.5-1.8,8.5
			c0.8,3,2.7,5.4,5.4,6.4l0.5,0.2c3.9,1.5,8,1.5,12.3,1.6c4.1,0,8.3,0.1,12.4,1.4C497.8,650.6,498.7,650.9,499.6,651.2z M471.8,612
			L471.8,612c-0.5-0.2-1-0.5-1.5-0.8c-5.1-3.3-8.7-8.9-9.7-15.6c-1.1-7.1,0.7-14.4,4.8-19.5c3.2-3.9,8.5-5.2,13.4-3.3
			c1.9,0.8,3.5,1.9,4.8,3.4c7.6,8.2,8.4,22.3,1.8,31.2C482.1,611.9,476.4,613.8,471.8,612z M477.7,575.6c-3.7-1.4-7.8-0.5-10.1,2.4
			c-3.6,4.5-5.2,10.9-4.2,17.2c0.9,5.8,4,10.7,8.4,13.5c0.3,0.2,0.7,0.4,1.1,0.5c3.8,1.5,8-0.6,10.1-3.5c5.8-7.9,5.1-20.3-1.7-27.6
			C480.3,577,479.1,576.2,477.7,575.6z M540.3,636.9L540.3,636.9c-3.1-1.5-5.2-4-6.1-7.4c-1.3-4.4-0.4-9.8,2.1-13.7
			c4.5-8.9,15.5-16.2,25.8-12.8l0.1,0l0.1,0c2.9,1.3,5,3.7,6.1,6.8c1.4,4,1,9-1.1,13C563,632.9,551.1,641,540.3,636.9L540.3,636.9z
			 M561.1,605.8c-8.8-2.8-18.3,3.6-22.3,11.5c-2.2,3.4-2.9,7.9-1.8,11.5c0.5,1.8,1.7,4.2,4.5,5.5c9.1,3.4,19.5-4,23.2-12.7
			c1.7-3.3,2.1-7.5,0.9-10.7C565,609.2,563.8,607,561.1,605.8z M501.7,592L501.7,592c-0.7-0.3-1.3-0.6-1.9-1
			c-8.1-6.4-11.6-20.7-3.7-33.7c3.2-5.4,10.3-9.6,16.6-7.4l0.3,0.1c0.8,0.3,1.6,0.8,2.4,1.3c8.7,6.4,9.2,19.1,6,28.1
			c-2.6,7.7-9.6,14.7-17.9,12.9C502.8,592.4,502.2,592.2,501.7,592z M511.8,552.8l-0.2-0.1c-4.8-1.7-10.5,1.8-13.1,6.1
			c-5.4,8.9-5.8,22.9,3,29.8c0.6,0.4,1.5,0.8,2.4,1c6.6,1.4,12.4-4.7,14.5-11c2.9-8.1,2.6-19.2-5-24.8
			C513,553.4,512.4,553,511.8,552.8z M530.9,603.3c-0.5-0.2-1-0.5-1.5-0.8c-8-5.2-8.1-16.6-3.6-24.7c4.1-8.2,13.1-16.2,23.3-14.1
			l0.2,0.1c0.1,0,0.2,0.1,0.3,0.1c0.1,0,0.3,0.1,0.4,0.1l0.1,0.1c7.5,2.9,9.7,12.3,7.5,19.3c-3.2,13.9-14.7,21-23.8,20.6
			C532.7,603.9,531.8,603.7,530.9,603.3z M548.4,566.7c-8.6-1.7-16.4,5.4-20,12.6c-3.8,6.8-3.9,16.6,2.6,20.8c0.8,0.5,1.9,0.8,3,1
			c10.2,0.5,18.6-9,20.8-18.4c1.8-5.9,0-13.5-5.7-15.8l-0.1-0.1c-0.1,0-0.2-0.1-0.3-0.1C548.6,566.7,548.5,566.7,548.4,566.7z"/>
	</g>
</g>
</svg>
