<?xml version="1.0" encoding="utf-8"?>
<!-- Generator: Adobe Illustrator 16.0.0, SVG Export Plug-In . SVG Version: 6.00 Build 0)  -->
<!DOCTYPE svg PUBLIC "-//W3C//DTD SVG 1.1//EN" "http://www.w3.org/Graphics/SVG/1.1/DTD/svg11.dtd">
<svg version="1.1" id="Layer_1" xmlns="http://www.w3.org/2000/svg" xmlns:xlink="http://www.w3.org/1999/xlink" x="0px" y="0px"
	 width="50px" height="50px" viewBox="0 0 50 50" style="enable-background:new 0 0 50 50;" xml:space="preserve">
<style type="text/css">
<![CDATA[
	.st0{fill-rule:evenodd;clip-rule:evenodd;fill:none;}
	.st1{fill-rule:evenodd;clip-rule:evenodd;fill:#88C9D1;}
	.st2{fill:none;}
	.st3{fill-rule:evenodd;clip-rule:evenodd;fill:#FFFFFF;}
]]>
</style>
<rect x="11.2" y="10.7" class="st3" width="28.2" height="28"/>
<path class="st1" d="M25.1,2.3C12.6,2.2,2.2,12.7,2.2,25.1c0,12.4,10.3,23,22.8,22.8c12.5,0.2,22.7-10.3,22.8-22.6
	C47.9,12.7,37.5,2.3,25.1,2.3z M36.8,20.6c-0.6,0.5-0.8,1-0.9,1.8c-0.1,7.4-5.3,13.6-12.5,14.9c-3.7,0.7-7.3,0.1-10.7-1.8
	c0.3-0.4,0.6-0.3,0.9-0.3c2-0.1,3.9-0.7,5.7-1.8c0.2-0.1,0.5-0.2,0.5-0.5c-0.1-0.3-0.4-0.2-0.6-0.2c-1.6-0.3-2.8-1.2-3.7-2.6
	c-0.4-0.6-0.4-1,0.5-0.9c0.3,0,0.7,0.1,1-0.2c-0.2-0.4-0.6-0.4-1-0.6c-1.6-0.9-2.6-2.2-2.8-4c-0.1-0.5,0.1-0.7,0.6-0.5
	c0.5,0.1,0.9,0.2,1.4,0.4c-0.1-0.5-0.5-0.7-0.7-1c-1.3-1.6-1.7-3.4-1-5.4c0.2-0.7,0.5-0.8,1-0.2c2.6,2.8,5.8,4.4,9.6,4.9
	c0.8,0.1,1-0.1,1-0.9C25,19.3,26,17.5,28,16.5c2.1-1,4.1-0.8,6,0.6c0.4,0.3,0.9,0.4,1.4,0.2c0.8-0.3,1.5-0.6,2.5-0.9
	c-0.4,1.2-1.1,2-2,2.7c1,0.1,1.7-0.3,2.6-0.5C38,19.5,37.5,20.1,36.8,20.6z"/>
</svg>
