<?xml version="1.0" encoding="utf-8"?>
<!-- Generator: Adobe Illustrator 16.0.0, SVG Export Plug-In . SVG Version: 6.00 Build 0)  -->
<!DOCTYPE svg PUBLIC "-//W3C//DTD SVG 1.1//EN" "http://www.w3.org/Graphics/SVG/1.1/DTD/svg11.dtd">
<svg version="1.1" id="Layer_1" xmlns="http://www.w3.org/2000/svg" xmlns:xlink="http://www.w3.org/1999/xlink" x="0px" y="0px"
	 width="50px" height="50px" viewBox="0 0 50 50" style="enable-background:new 0 0 50 50;" xml:space="preserve">
<style type="text/css">
<![CDATA[
	.st0{fill-rule:evenodd;clip-rule:evenodd;fill:none;}
	.st1{fill:none;}
	.st2{fill-rule:evenodd;clip-rule:evenodd;fill:#FFFFFF;}
	.st3{fill-rule:evenodd;clip-rule:evenodd;fill:#CCCCCC;}
]]>
</style>
<rect x="14.5" y="12.7" class="st2" width="21.8" height="25"/>
<path class="st1" d="M25.3,2.3C12.8,2,2.5,12.8,2.5,24.9C2.4,37.3,12.8,47.7,25.1,47.8C37.6,47.9,48,37.3,48,25.1
	C48.1,12.9,37.8,2.1,25.3,2.3z"/>
<path class="st3" d="M25.3,2.3C37.8,2.1,48.1,12.9,48,25.1C48,37.3,37.6,47.9,25.1,47.8C12.8,47.7,2.4,37.3,2.5,24.9
	C2.5,12.8,12.8,2,25.3,2.3z M14.5,25c0,2.2,0,4.4,0,6.6c0,2.5,1.7,4.2,4.2,4.3c4.4,0.1,8.8,0.1,13.1,0c2.5,0,4.2-1.8,4.2-4.2
	c0.1-4.4,0.1-8.8,0-13.1c0-2.5-1.8-4.1-4.3-4.1c-4.3,0-8.7,0-13,0c-2.6,0-4.2,1.6-4.2,4.2C14.5,20.7,14.5,22.8,14.5,25z"/>
<path class="st0" d="M14.5,25c0-2.2,0-4.3,0-6.5c0-2.6,1.6-4.2,4.2-4.2c4.3,0,8.7,0,13,0c2.5,0,4.2,1.6,4.3,4.1
	c0.1,4.4,0.1,8.8,0,13.1c0,2.5-1.7,4.2-4.2,4.2c-4.4,0.1-8.8,0.1-13.1,0c-2.5,0-4.1-1.8-4.2-4.3C14.5,29.4,14.5,27.2,14.5,25z
	 M16.5,27.7c0,1.1,0,2.3,0,3.4c0,2,0.8,2.8,2.9,2.8c4,0,7.9,0,11.9,0c2.1,0,2.9-0.9,3-3c0-2,0-3.9,0-5.9c0-2.4,0-2.4-2.4-2.3
	c0,0-0.1,0-0.1,0c-0.6,0-0.8,0.2-0.7,0.8c0.1,0.5,0.2,1.1,0.2,1.6c-0.2,3.3-2.9,5.9-6,5.7c-3.4-0.2-5.7-2.8-5.6-6.3
	c0-0.6,0.7-1.4,0-1.8c-0.5-0.3-1.3-0.1-1.9-0.1c-0.8-0.1-1.1,0.3-1.1,1.1C16.5,25.1,16.5,26.4,16.5,27.7z M29.1,25
	c0-2.2-1.7-3.9-3.8-3.9c-2.2,0-3.9,1.8-3.9,3.9c0,2.1,1.7,3.8,3.9,3.8C27.5,28.9,29.1,27.2,29.1,25z M31.8,16.6
	c-2.1,0-1.9-0.2-1.9,2c0,0.3,0,0.7,0,1c0,0.5,0.2,0.9,0.8,0.9c0.7,0,1.5,0,2.2,0c0.6,0,0.8-0.3,0.8-0.8c0-0.3,0-0.7,0-1
	C33.8,16.6,33.8,16.6,31.8,16.6z"/>
<path class="st3" d="M16.5,27.7c0-1.3,0-2.6,0-3.8c0-0.8,0.2-1.2,1.1-1.1c0.6,0.1,1.4-0.2,1.9,0.1c0.7,0.4,0,1.2,0,1.8
	c-0.1,3.5,2.2,6.1,5.6,6.3c3.1,0.2,5.9-2.3,6-5.7c0-0.5-0.1-1.1-0.2-1.6c-0.1-0.6,0.1-0.8,0.7-0.8c0,0,0.1,0,0.1,0
	c2.4-0.1,2.4-0.1,2.4,2.3c0,2,0,3.9,0,5.9c0,2.1-0.9,3-3,3c-4,0-7.9,0-11.9,0c-2.1,0-2.9-0.8-2.9-2.8C16.5,29.9,16.5,28.8,16.5,27.7
	z"/>
<path class="st3" d="M29.1,25c0,2.2-1.6,3.9-3.8,3.9c-2.2,0-3.9-1.7-3.9-3.8c0-2.2,1.7-3.9,3.9-3.9C27.5,21.2,29.1,22.8,29.1,25z"/>
<path class="st3" d="M31.8,16.6c2,0,2,0,2,2c0,0.3,0,0.7,0,1c0,0.6-0.3,0.8-0.8,0.8c-0.8,0-1.5,0-2.2,0c-0.6,0-0.8-0.3-0.8-0.9
	c0-0.3,0-0.7,0-1C29.9,16.4,29.7,16.6,31.8,16.6z"/>
</svg>
