<?xml version="1.0" encoding="utf-8"?>
<!-- Generator: Adobe Illustrator 16.0.0, SVG Export Plug-In . SVG Version: 6.00 Build 0)  -->
<!DOCTYPE svg PUBLIC "-//W3C//DTD SVG 1.1//EN" "http://www.w3.org/Graphics/SVG/1.1/DTD/svg11.dtd">
<svg version="1.1" id="Layer_1" xmlns="http://www.w3.org/2000/svg" xmlns:xlink="http://www.w3.org/1999/xlink" x="0px" y="0px"
	 width="50px" height="50px" viewBox="0 0 50 50" style="enable-background:new 0 0 50 50;" xml:space="preserve">
<style type="text/css">
<![CDATA[
	.st0{fill-rule:evenodd;clip-rule:evenodd;fill:none;}
	.st1{fill:none;}
	.st2{fill-rule:evenodd;clip-rule:evenodd;fill:#FFFFFF;}
	.st3{fill-rule:evenodd;clip-rule:evenodd;fill:#CCCCCC;}
]]>
</style>
<rect x="14.5" y="13.7" class="st2" width="21.8" height="25"/>
<path class="st3" d="M45,13.8C40.4,6,32.1,1.4,22.5,2.4C16.7,3,11.8,5.6,7.9,10c-6.5,7-7.8,18.4-3,26.6c4.7,7.9,11.5,12.1,20.7,11.8
	c9.5-0.3,16.3-5.1,20.5-13.5c1-2.1,1.5-4.3,1.9-6.6c0-1.9,0-3.8,0-5.8C47.5,19.4,46.6,16.5,45,13.8z M28.1,21.9h2.4v4h-3.2
	c-0.1,0.2-0.2,0.4-0.2,0.7c0,3,0,6,0,8.9c0,0.9-0.3,1.3-1.2,1.2c-0.8-0.1-1.5,0-2.3,0c-0.8,0-1.1-0.3-1.1-1c0-1.5,0-3,0-4.6
	c0,0,0,0,0,0c0-1.5,0-3,0-4.5c0-0.4-0.1-0.6-0.2-0.8h-3v-4h2.5c0.5-0.1,0.6-0.4,0.6-0.8c0-0.7,0-1.3,0-2c0.1-2.8,1.4-4.2,4.2-4.5
	c1-0.1,2,0,3,0c0.6,0,0.8,0.3,0.8,0.9c0,0.2,0,0.3,0,0.5c0,2.2,0,2.2-2.1,2.4c-0.9,0.1-1.3,0.6-1.4,1.5C27,21.5,27,21.8,28.1,21.9z"
	/>
</svg>
